<?xml version="1.0" encoding="UTF-8" standalone="no"?>
<!-- Created with Inkscape (http://www.inkscape.org/) -->

<svg
   width="2.3576484mm"
   height="1.3747706mm"
   viewBox="0 0 2.3576484 1.3747707"
   version="1.1"
   id="svg1"
   xmlns="http://www.w3.org/2000/svg"
   xmlns:svg="http://www.w3.org/2000/svg">
  <defs
     id="defs1" />
  <g
     id="layer1"
     transform="translate(-96.981591,-132.39804)">
    <path
       d="m 99.339241,132.59405 c 0,-0.0189 -0.0095,-0.0402 -0.02363,-0.0543 l -0.118136,-0.11812 c -0.01416,-0.0142 -0.03543,-0.0236 -0.05432,-0.0236 -0.01889,0 -0.04016,0.009 -0.05434,0.0236 l -0.928397,0.9284 -0.928405,-0.9284 c -0.01417,-0.0142 -0.03544,-0.0236 -0.05433,-0.0236 -0.02126,0 -0.04016,0.009 -0.05434,0.0236 l -0.118115,0.11812 c -0.01418,0.0142 -0.02363,0.0354 -0.02363,0.0543 0,0.0189 0.0095,0.0402 0.02363,0.0543 l 1.100855,1.10085 c 0.01417,0.0142 0.03544,0.0236 0.05433,0.0236 0.01889,0 0.04016,-0.009 0.05434,-0.0236 l 1.100852,-1.10085 c 0.01416,-0.0142 0.02363,-0.0354 0.02363,-0.0543 z"
       fill="#000000"
       id="path1"
       style="stroke-width:0.264583" />
  </g>
</svg>
