<?xml version="1.0" encoding="UTF-8" standalone="no"?>
<!-- Created with Inkscape (http://www.inkscape.org/) -->

<svg
   width="4.5357294mm"
   height="5.291667mm"
   viewBox="0 0 4.5357294 5.291667"
   version="1.1"
   id="svg1"
   xmlns="http://www.w3.org/2000/svg"
   xmlns:svg="http://www.w3.org/2000/svg">
  <defs
     id="defs1" />
  <g
     id="layer1"
     transform="translate(-91.545827,-144.7271)">
    <path
       d="m 95.88074,145.8492 -0.921305,-0.92132 c -0.109273,-0.10926 -0.327793,-0.2008 -0.484294,-0.2008 h -2.645825 c -0.156506,0 -0.283483,0.12698 -0.283483,0.28349 v 4.72471 c 0,0.1565 0.126977,0.28347 0.283483,0.28347 h 3.968742 c 0.156501,0 0.283501,-0.12697 0.283501,-0.28347 v -3.4018 c 0,-0.1565 -0.09155,-0.37502 -0.200819,-0.48428 z m -1.31109,-0.72052 c 0.05019,0.0177 0.100383,0.0443 0.121074,0.065 l 0.924269,0.92427 c 0.02066,0.0207 0.04723,0.0709 0.06495,0.12107 H 94.56965 Z m 1.133925,4.51209 h -3.779766 v -4.53571 h 2.267858 v 1.22842 c 0,0.15651 0.126973,0.28349 0.283474,0.28349 h 1.228434 z m -3.023814,-2.55134 v 0.18899 c 0,0.0532 0.04134,0.0945 0.0945,0.0945 h 2.078868 c 0.05315,0 0.09448,-0.0413 0.09448,-0.0945 v -0.18899 c 0,-0.0531 -0.04133,-0.0945 -0.09448,-0.0945 h -2.078868 c -0.05315,0 -0.0945,0.0413 -0.0945,0.0945 z m 2.173364,0.66147 h -2.078868 c -0.05315,0 -0.0945,0.0413 -0.0945,0.0945 v 0.189 c 0,0.0531 0.04134,0.0945 0.0945,0.0945 h 2.078868 c 0.05315,0 0.09448,-0.0413 0.09448,-0.0945 v -0.189 c 0,-0.0532 -0.04133,-0.0945 -0.09448,-0.0945 z m 0,0.75594 h -2.078868 c -0.05315,0 -0.0945,0.0414 -0.0945,0.0945 v 0.18897 c 0,0.0531 0.04134,0.0945 0.0945,0.0945 h 2.078868 c 0.05315,0 0.09448,-0.0413 0.09448,-0.0945 v -0.18897 c 0,-0.0531 -0.04133,-0.0945 -0.09448,-0.0945 z"
       fill="#272733"
       id="path1"
       style="stroke-width:0.264583" />
  </g>
</svg>
