<?xml version="1.0" encoding="UTF-8" standalone="no"?>
<!-- Created with Inkscape (http://www.inkscape.org/) -->

<svg
   width="9.5249996mm"
   height="7.4839263mm"
   viewBox="0 0 9.5249996 7.4839263"
   version="1.1"
   id="svg1"
   xmlns="http://www.w3.org/2000/svg"
   xmlns:svg="http://www.w3.org/2000/svg">
  <defs
     id="defs1" />
  <g
     id="layer1"
     transform="translate(-100.54166,-144.67039)">
    <path
       d="m 109.38632,151.30386 c 0,0.0904 -0.0798,0.1701 -0.1701,0.1701 h -7.8241 c -0.0904,0 -0.1701,-0.0797 -0.1701,-0.1701 v -4.08213 c 0.11162,0.12756 0.23389,0.24451 0.36676,0.35081 0.7601,0.58468 1.52548,1.17999 2.26431,1.79655 0.39864,0.33489 0.89296,0.74414 1.44576,0.74414 h 0.005 0.005 c 0.55279,0 1.04711,-0.40925 1.44576,-0.74414 0.73882,-0.61656 1.50421,-1.21187 2.2643,-1.79655 0.13287,-0.1063 0.25514,-0.22325 0.36677,-0.35081 z m 0,-5.58636 c 0,0.4518 -0.43585,1.04179 -0.78137,1.31286 -0.71223,0.55811 -1.42449,1.12154 -2.13143,1.68497 -0.2817,0.22855 -0.79198,0.71755 -1.16404,0.71755 h -0.005 -0.005 c -0.37205,0 -0.88233,-0.489 -1.16403,-0.71755 -0.70694,-0.56343 -1.41919,-1.12686 -2.13143,-1.68497 -0.47839,-0.37737 -0.78136,-0.90358 -0.78136,-1.50953 0,-0.0904 0.0797,-0.1701 0.1701,-0.1701 h 7.8241 c 0.20198,0 0.1701,0.23389 0.1701,0.36677 z m 0.68035,-0.19667 c 0,-0.46775 -0.3827,-0.85045 -0.85045,-0.85045 h -7.8241 c -0.46776,0 -0.85045,0.3827 -0.85045,0.85045 v 5.78303 c 0,0.46775 0.38269,0.85045 0.85045,0.85045 h 7.8241 c 0.46775,0 0.85045,-0.3827 0.85045,-0.85045 z"
       fill="#ffffff"
       id="path1"
       style="fill:#ffffff;stroke-width:0.264583" />
  </g>
</svg>
