<?xml version="1.0" encoding="UTF-8" standalone="no"?>
<!-- Created with Inkscape (http://www.inkscape.org/) -->

<svg
   width="8.1642952mm"
   height="8.1642952mm"
   viewBox="0 0 8.1642952 8.1642952"
   version="1.1"
   id="svg1"
   xmlns="http://www.w3.org/2000/svg"
   xmlns:svg="http://www.w3.org/2000/svg">
  <defs
     id="defs1" />
  <g
     id="layer1"
     transform="translate(-95.268894,-142.36474)">
    <path
       d="m 102.07247,148.48795 c 0,0.37206 -0.3083,0.68035 -0.68035,0.68035 -0.37209,0 -0.68035,-0.30829 -0.68035,-0.68035 0,-0.37208 0.30826,-0.68038 0.68035,-0.68038 0.37205,0 0.68035,0.3083 0.68035,0.68038 z m -4.082154,-4.08215 c 0,0.37206 -0.308266,0.68035 -0.68035,0.68035 -0.372057,0 -0.680349,-0.30829 -0.680349,-0.68035 0,-0.37208 0.308292,-0.68035 0.680349,-0.68035 0.372084,0 0.68035,0.30827 0.68035,0.68035 z m 5.442874,4.08215 c 0,-1.12686 -0.91424,-2.04107 -2.04107,-2.04107 -1.12684,0 -2.041078,0.91421 -2.041078,2.04107 0,1.12683 0.914238,2.04108 2.041078,2.04108 1.12683,0 2.04107,-0.91425 2.04107,-2.04108 z m -0.51027,-5.78305 c 0,-0.18603 -0.15415,-0.34018 -0.34018,-0.34018 h -0.85045 c -0.10631,0 -0.2073,0.0532 -0.27109,0.1382 l -5.612924,7.48392 c -0.04255,0.0585 -0.06911,0.12758 -0.06911,0.20198 0,0.18606 0.154146,0.34021 0.340175,0.34021 h 0.85045 c 0.106309,0 0.207301,-0.0532 0.271092,-0.13822 l 5.612927,-7.48393 c 0.0425,-0.0585 0.0691,-0.12755 0.0691,-0.20198 z m -3.571878,1.7009 c 0,-1.12683 -0.914242,-2.04108 -2.041076,-2.04108 -1.126834,0 -2.041075,0.91425 -2.041075,2.04108 0,1.12683 0.914241,2.04108 2.041075,2.04108 1.126834,0 2.041076,-0.91425 2.041076,-2.04108 z"
       fill="#ffffff"
       id="path1"
       style="stroke-width:0.264583" />
  </g>
</svg>
