<?xml version="1.0" encoding="UTF-8" standalone="no"?>
<!-- Created with Inkscape (http://www.inkscape.org/) -->

<svg
   width="5.2907462mm"
   height="5.291667mm"
   viewBox="0 0 5.2907462 5.291667"
   version="1.1"
   id="svg1"
   xmlns="http://www.w3.org/2000/svg"
   xmlns:svg="http://www.w3.org/2000/svg">
  <defs
     id="defs1">
    <clipPath
       id="clip0_4_174">
      <rect
         width="20"
         height="20"
         fill="#ffffff"
         id="rect2"
         x="0"
         y="0" />
    </clipPath>
    <clipPath
       id="clip1_4_174">
      <rect
         width="20"
         height="20"
         fill="#ffffff"
         id="rect3"
         x="0"
         y="0" />
    </clipPath>
  </defs>
  <g
     id="layer1"
     transform="translate(-99.484191,-148.69585)">
    <g
       clip-path="url(#clip0_4_174)"
       id="g2"
       transform="matrix(0.26458333,0,0,0.26458333,99.483333,148.69583)">
      <g
         clip-path="url(#clip1_4_174)"
         id="g1">
        <path
           d="m 16.4119,13.4559 c 0.0601,0.3876 -0.0668,0.5517 -0.1951,0.5517 -0.1282,0 -0.3139,-0.1576 -0.521,-0.4703 -0.2071,-0.3128 -0.2779,-0.6604 -0.1777,-0.8387 0.0378,-0.0618 0.0987,-0.1071 0.1701,-0.1266 0.0714,-0.0195 0.1478,-0.0116 0.2133,0.0219 0.3407,0.1241 0.4743,0.6294 0.5104,0.862 z m -1.8877,0.8502 c 0.4101,0.3347 0.5344,0.7328 0.318,1.0132 -0.066,0.0784 -0.15,0.1407 -0.2453,0.182 -0.0954,0.0413 -0.1994,0.0604 -0.3038,0.0557 -0.2288,4e-4 -0.4506,-0.0769 -0.6266,-0.2184 -0.3713,-0.314 -0.4809,-0.8244 -0.2377,-1.1139 0.0537,-0.0594 0.1207,-0.1061 0.196,-0.1366 0.0752,-0.0304 0.1567,-0.0438 0.2381,-0.0391 0.2448,0.0079 0.479,0.0989 0.6613,0.2571 z m -0.684,3.2306 c 1.7621,0 3.6738,0.5841 5.7912,2.3984 0.2111,0.181 0.493,-0.0439 0.3086,-0.27 -2.08,-2.5393 -4.0077,-3.0239 -5.9221,-3.4322 -2.3459,-0.5014 -3.5535,-1.7794 -4.39918,-3.1815 -0.16699,-0.2791 -0.24314,-0.23 -0.25783,0.1292 -0.01404,0.5325 0.02758,1.065 0.12424,1.5895 -0.09485,0 -0.19104,0 -0.28589,0 -1.20219,0 -2.37739,-0.3449 -3.37698,-0.9909 C 4.82267,13.1331 4.04358,12.2148 3.58352,11.1404 3.12346,10.0661 3.00308,8.88385 3.23762,7.7433 3.47216,6.60275 4.05107,5.55509 4.90115,4.7328 5.75124,3.91051 6.83431,3.35053 8.0134,3.12366 c 1.1791,-0.22687 2.4013,-0.11044 3.512,0.33458 1.1106,0.44502 2.06,1.19864 2.7279,2.16555 0.6679,0.96691 1.0244,2.10369 1.0244,3.26658 6e-4,0.2284 -0.0124,0.45663 -0.0388,0.6836 -0.6403,-0.078 -1.2875,-0.0897 -1.9304,-0.03489 -0.2311,0.01938 -0.1977,0.12922 -0.024,0.15377 2.0038,0.35015 3.3905,1.55065 3.7058,3.74105 0.0011,0.0111 0.0059,0.0216 0.0135,0.0299 0.0076,0.0083 0.0178,0.0142 0.0291,0.0166 0.0112,0.0024 0.023,0.0014 0.0336,-0.003 0.0105,-0.0044 0.0194,-0.012 0.0253,-0.0215 1.0424,-1.6856 1.4788,-3.65752 1.2411,-5.60816 C 18.0952,5.89709 17.1968,4.07738 15.7778,2.67245 14.3588,1.26752 12.499,0.356356 10.4885,0.0810911 8.47805,-0.194174 6.4299,0.181935 4.66357,1.15075 2.89723,2.11957 1.51203,3.62662 0.724023,5.43683 c -0.788004,1.81021 -0.934501,3.8218 -0.41664,5.72097 0.51786,1.8992 1.670957,3.5792 3.279437,4.778 1.60848,1.1988 3.58189,1.849 5.61242,1.8491 1.34256,0.0038 2.67986,-0.2494 4.64096,-0.2494 z"
           fill="#3e9cdc"
           id="path1" />
      </g>
    </g>
  </g>
</svg>
