<?xml version="1.0" encoding="UTF-8" standalone="no"?>
<!-- Created with Inkscape (http://www.inkscape.org/) -->

<svg
   width="8.8446474mm"
   height="8.8446474mm"
   viewBox="0 0 8.8446474 8.8446474"
   version="1.1"
   id="svg1"
   xmlns="http://www.w3.org/2000/svg"
   xmlns:svg="http://www.w3.org/2000/svg">
  <defs
     id="defs1" />
  <g
     id="layer1"
     transform="translate(-94.664132,-144.14123)">
    <path
       d="m 100.78736,147.88319 c 0,1.31286 -1.068389,2.38125 -2.381251,2.38125 -1.312889,0 -2.38125,-1.06839 -2.38125,-2.38125 0,-1.31289 1.068361,-2.38125 2.38125,-2.38125 1.312862,0 2.381251,1.06836 2.381251,2.38125 z m 2.72142,4.42233 c 0,-0.18074 -0.0744,-0.35613 -0.19666,-0.4784 l -1.82317,-1.82313 c 0.43056,-0.62191 0.65911,-1.36605 0.65911,-2.1208 0,-2.06766 -1.67431,-3.74197 -3.741951,-3.74197 -2.067666,0 -3.741976,1.67431 -3.741976,3.74197 0,2.06764 1.67431,3.74195 3.741976,3.74195 0.75475,0 1.498891,-0.22855 2.120791,-0.6591 l 1.82314,1.81784 c 0.12226,0.12756 0.29766,0.20199 0.47839,0.20199 0.37206,0 0.68035,-0.3083 0.68035,-0.68035 z"
       fill="#ffffff"
       id="path1"
       style="stroke-width:0.264583" />
  </g>
</svg>
