<?xml version="1.0" encoding="UTF-8" standalone="no"?>
<!-- Created with Inkscape (http://www.inkscape.org/) -->

<svg
   width="2.7696469mm"
   height="3.4625795mm"
   viewBox="0 0 2.7696469 3.4625795"
   version="1.1"
   id="svg1"
   xmlns="http://www.w3.org/2000/svg"
   xmlns:svg="http://www.w3.org/2000/svg">
  <defs
     id="defs1" />
  <g
     id="layer1"
     transform="translate(-104.61038,-156.95273)">
    <path
       d="m 107.38003,159.35492 c 0,0.17206 -0.0325,0.32321 -0.0977,0.45344 -0.0651,0.13023 -0.15272,0.23797 -0.26279,0.32324 -0.13023,0.10232 -0.27363,0.17518 -0.43021,0.2186 -0.15502,0.0434 -0.35269,0.0651 -0.59298,0.0651 h -1.38596 v -3.46258 h 1.22318 c 0.25425,0 0.44649,0.0101 0.57672,0.0302 0.13176,0.0186 0.25503,0.0589 0.36973,0.12092 0.12403,0.0667 0.21627,0.1558 0.27672,0.26742 0.062,0.11163 0.093,0.2403 0.093,0.38603 0,0.16898 -0.0426,0.31936 -0.1279,0.45113 -0.0837,0.13178 -0.19997,0.22867 -0.3488,0.29068 v 0.0186 c 0.21392,0.045 0.38523,0.1372 0.5139,0.27673 0.12869,0.13798 0.19301,0.32477 0.19301,0.56044 z m -1.11386,-1.42318 c 0,-0.0558 -0.0147,-0.11318 -0.0442,-0.17209 -0.0279,-0.0589 -0.0721,-0.10154 -0.13256,-0.1279 -0.0574,-0.0248 -0.12557,-0.038 -0.20464,-0.0395 -0.0775,-0.003 -0.19378,-0.005 -0.34881,-0.005 h -0.0605 v 0.73251 h 0.10929 c 0.14883,0 0.2527,-0.002 0.31161,-0.005 0.0605,-0.003 0.12247,-0.0194 0.18604,-0.0488 0.0698,-0.0326 0.11781,-0.0775 0.14419,-0.13487 0.0263,-0.0574 0.0395,-0.12403 0.0395,-0.19999 z m 0.21857,1.40688 c 0,-0.10697 -0.0217,-0.19069 -0.0651,-0.25114 -0.0434,-0.0605 -0.1085,-0.10621 -0.19531,-0.13719 -0.0527,-0.0202 -0.12557,-0.031 -0.2186,-0.0326 -0.0915,-0.003 -0.21472,-0.005 -0.36975,-0.005 h -0.16045 v 0.86741 h 0.0465 c 0.22635,0 0.38293,-0.002 0.46974,-0.005 0.0868,-0.003 0.1752,-0.024 0.2651,-0.0628 0.0791,-0.0341 0.13642,-0.0837 0.17209,-0.14883 0.0372,-0.0667 0.0558,-0.14187 0.0558,-0.22559 z"
       fill="#3e9cdc"
       id="path1"
       style="stroke-width:0.264583" />
  </g>
</svg>
