<?xml version="1.0" encoding="UTF-8" standalone="no"?>
<!-- Created with Inkscape (http://www.inkscape.org/) -->

<svg
   width="4.7418618mm"
   height="4.7100163mm"
   viewBox="0 0 4.7418618 4.7100163"
   version="1.1"
   id="svg1"
   xmlns="http://www.w3.org/2000/svg"
   xmlns:svg="http://www.w3.org/2000/svg">
  <defs
     id="defs1">
    <clipPath
       id="clip0_4_184">
      <rect
         width="20"
         height="20"
         fill="#ffffff"
         id="rect1"
         x="0"
         y="0" />
    </clipPath>
  </defs>
  <g
     id="layer1"
     transform="translate(-105.03958,-148.16667)">
    <g
       clip-path="url(#clip0_4_184)"
       id="g1"
       transform="matrix(0.26458333,0,0,0.26458333,105.03958,148.16667)">
      <path
         d="M 8.84077,0 C 10.251,0 11.5928,0.323103 12.7969,0.901077 12.9857,0.986269 13.1758,1.08823 13.364,1.19028 L 12.5384,1.92159 11.3007,0.646297 9.16802,2.51651 7.91214,1.17307 3.99048,4.65889 6.50126,7.39646 5.52108,8.24641 7.99822,10.984 l -0.98027,0.8496 3.54335,3.8938 2.0972,-1.9044 1.8241,2.0409 c -0.3615,0.2721 -0.7571,0.5447 -1.1866,0.7823 -1.3074,0.7311 -2.8213,1.1554 -4.43786,1.1554 -4.97123,0 -9.012594,-3.995 -9.012594,-8.90846 C -0.172009,4.01286 3.87007,0 8.84077,0 Z M 7.18931,8.34864 9.33937,6.44418 11.2662,8.56952 9.11567,10.4738 Z m 1.53122,3.67276 2.13257,-1.9213 1.9438,2.1252 -2.1502,1.9045 z M 5.65942,4.72713 7.80886,2.82267 9.73522,4.948 7.58507,6.85238 Z M 9.59741,3.70661 11.1971,2.27842 12.6423,3.85978 11.0426,5.30484 Z m 2.85549,6.54619 1.5992,-1.42824 1.4451,1.59784 -1.5998,1.4292 z m 1.4102,3.214 1.5998,-1.4286 1.4439,1.5813 -1.5992,1.4449 z m 0.6537,-7.34573 1.0663,-0.95228 0.9628,1.0546 -1.066,0.95192 z m -1.376,-3.14559 1.0663,-0.96897 0.9636,1.07102 -1.0671,0.95219 z m 2.7347,6.29145 1.0662,-0.95219 0.9803,1.05425 -1.0831,0.95191 z M 11.0768,6.90341 12.6766,5.47513 14.1211,7.05614 12.522,8.48469 Z"
         fill="#3e9cdc"
         id="path1" />
    </g>
  </g>
</svg>
