<?xml version="1.0" encoding="UTF-8" standalone="no"?>
<!-- Created with Inkscape (http://www.inkscape.org/) -->

<svg
   width="3.5561621mm"
   height="4.6368947mm"
   viewBox="0 0 3.5561621 4.6368947"
   version="1.1"
   id="svg1"
   xmlns="http://www.w3.org/2000/svg"
   xmlns:svg="http://www.w3.org/2000/svg">
  <defs
     id="defs1" />
  <g
     id="layer1"
     transform="translate(-105.37817,-150.08158)">
    <path
       fill-rule="evenodd"
       clip-rule="evenodd"
       d="m 105.37822,152.38166 c 0,-0.26036 0.022,-0.4256 0.56575,-0.8281 0.45016,-0.33324 1.89308,-1.47199 1.89308,-1.47199 v 1.90094 h 1.09728 v 2.73595 h -3.21338 c -0.1885,0 -0.34278,-0.153 -0.34278,-0.33996 l 5e-5,-1.99682 z"
       fill="#3e9cdc"
       id="path1"
       style="stroke-width:0.264583" />
    <path
       fill-rule="evenodd"
       clip-rule="evenodd"
       d="m 107.83705,151.98249 v 1.10146 l -2.01637,1.36221 2.54932,-0.82257 v -1.6411 z"
       fill="#000000"
       fill-opacity="0.2"
       id="path2"
       style="stroke-width:0.264583" />
    <path
       fill-rule="evenodd"
       clip-rule="evenodd"
       d="m 106.9156,151.92556 c 0.11792,-0.13933 0.29013,-0.18851 0.38469,-0.10983 0.0946,0.0787 0.0757,0.25544 -0.0423,0.39478 -0.11785,0.13931 -0.29013,0.18844 -0.38469,0.10974 -0.0945,-0.0787 -0.0756,-0.25539 0.0422,-0.39471 z"
       fill="#231f20"
       id="path3"
       style="stroke-width:0.264583" />
  </g>
</svg>
