<?xml version="1.0" encoding="UTF-8" standalone="no"?>
<!-- Created with Inkscape (http://www.inkscape.org/) -->

<svg
   width="10.126174mm"
   height="10.988283mm"
   viewBox="0 0 10.126174 10.988283"
   version="1.1"
   id="svg1"
   xmlns="http://www.w3.org/2000/svg"
   xmlns:svg="http://www.w3.org/2000/svg">
  <defs
     id="defs1" />
  <g
     id="layer1"
     transform="translate(-95.743159,-145.31837)">
    <path
       d="m 99.746117,151.37405 v -0.34017 c 0,-0.0957 0.07443,-0.17008 0.170101,-0.17008 h 3.741952 c 0.0957,0 0.1701,0.0744 0.1701,0.17008 v 0.34017 c 0,0.0957 -0.0744,0.1701 -0.1701,0.1701 h -3.741952 c -0.09567,0 -0.170101,-0.0744 -0.170101,-0.1701 z"
       fill="#ffffff"
       id="path1"
       style="stroke-width:0.264583" />
    <path
       d="m 99.916218,152.2245 h 3.741952 c 0.0957,0 0.1701,0.0744 0.1701,0.1701 v 0.34018 c 0,0.0957 -0.0744,0.17007 -0.1701,0.17007 h -3.741952 c -0.09567,0 -0.170101,-0.0744 -0.170101,-0.17007 v -0.34018 c 0,-0.0957 0.07443,-0.1701 0.170101,-0.1701 z"
       fill="#ffffff"
       id="path2"
       style="stroke-width:0.264583" />
    <path
       d="m 99.916218,153.58523 h 3.741952 c 0.0957,0 0.1701,0.0744 0.1701,0.17007 v 0.34018 c 0,0.0957 -0.0744,0.1701 -0.1701,0.1701 h -3.741952 c -0.09567,0 -0.170101,-0.0744 -0.170101,-0.1701 v -0.34018 c 0,-0.0957 0.07443,-0.17007 0.170101,-0.17007 z"
       fill="#ffffff"
       id="path3"
       style="stroke-width:0.264583" />
    <path
       fill-rule="evenodd"
       clip-rule="evenodd"
       d="m 97.705042,149.24214 c -1.083521,0 -1.96188,-0.87836 -1.96188,-1.96188 0,-1.08352 0.878359,-1.96189 1.96188,-1.96189 0.911225,0 1.677353,0.62124 1.897962,1.46328 h 3.374816 c 0.2817,0 0.67503,0.16478 0.87169,0.36145 l 1.65839,1.65835 c 0.19666,0.19667 0.36144,0.59 0.36144,0.87173 v 6.1232 c 0,0.28172 -0.22857,0.51027 -0.51027,0.51027 h -7.143752 c -0.281702,0 -0.510276,-0.22855 -0.510276,-0.51027 z m 0.680376,-0.12117 c 0.69387,-0.25657 1.202955,-0.89424 1.273202,-1.65897 h 2.80892 v 2.21118 c 0,0.2817 0.22858,0.51025 0.51028,0.51025 h 2.21115 v 5.44287 h -6.803552 z m 4.980412,-1.4995 c -0.0372,-0.0372 -0.12756,-0.085 -0.21791,-0.11695 v 1.99856 h 1.99853 c -0.0319,-0.0904 -0.0797,-0.18071 -0.11692,-0.21794 z m -5.396204,-0.0766 h 1.058333 v -0.52916 h -1.058333 v -1.05833 h -0.529167 v 1.05833 h -1.058333 v 0.52916 h 1.058333 v 1.05834 h 0.529167 z"
       fill="#ffffff"
       id="path4"
       style="stroke-width:0.264583" />
  </g>
</svg>
