<?xml version="1.0" encoding="UTF-8" standalone="no"?>
<!-- Created with Inkscape (http://www.inkscape.org/) -->

<svg
   width="10.205351mm"
   height="6.8035741mm"
   viewBox="0 0 10.205351 6.8035741"
   version="1.1"
   id="svg1"
   xmlns="http://www.w3.org/2000/svg"
   xmlns:svg="http://www.w3.org/2000/svg">
  <defs
     id="defs1" />
  <g
     id="layer1"
     transform="translate(-96.705203,-147.58082)">
    <path
       d="m 100.78736,152.3433 v -0.51028 h 0.68035 v -1.5308 h -0.0106 c -0.085,0.1329 -0.16475,0.19135 -0.29234,0.30298 l -0.40928,-0.42521 0.78666,-0.72822 h 0.60595 v 2.38125 h 0.68037 v 0.51028 z m 2.72142,-1.36073 c 0,-0.96737 -0.58467,-2.21115 -1.7009,-2.21115 -1.11619,0 -1.7009,1.24378 -1.7009,2.21115 0,0.9674 0.58471,2.21118 1.7009,2.21118 1.11623,0 1.7009,-1.24378 1.7009,-2.21118 z m 2.72143,1.36073 c -0.74946,0 -1.36073,0.61127 -1.36073,1.36073 h -6.123197 c 0,-0.74946 -0.611266,-1.36073 -1.360725,-1.36073 v -2.72142 c 0.749459,0 1.360725,-0.61127 1.360725,-1.36073 h 6.123197 c 0,0.74946 0.61127,1.36073 1.36073,1.36073 z m 0.68035,-4.42233 c 0,-0.18602 -0.15415,-0.34017 -0.34018,-0.34017 h -9.524994 c -0.186034,0 -0.340178,0.15415 -0.340178,0.34017 v 6.12323 c 0,0.18603 0.154144,0.34018 0.340178,0.34018 h 9.524994 c 0.18603,0 0.34018,-0.15415 0.34018,-0.34018 z"
       fill="#ffffff"
       id="path1"
       style="stroke-width:0.264583" />
  </g>
</svg>
