<?xml version="1.0" encoding="UTF-8" standalone="no"?>
<!-- Created with Inkscape (http://www.inkscape.org/) -->

<svg
   width="3.96875mm"
   height="3.1183014mm"
   viewBox="0 0 3.96875 3.1183014"
   version="1.1"
   id="svg1"
   xmlns="http://www.w3.org/2000/svg"
   xmlns:svg="http://www.w3.org/2000/svg">
  <defs
     id="defs1" />
  <g
     id="layer1"
     transform="translate(-103.71666,-157.42713)">
    <path
       d="m 107.40194,160.19103 c 0,0.0376 -0.0332,0.0709 -0.0709,0.0709 H 104.071 c -0.0376,0 -0.0709,-0.0332 -0.0709,-0.0709 v -1.70089 c 0.0465,0.0532 0.0974,0.10188 0.15281,0.14617 0.31671,0.24362 0.63562,0.49167 0.94347,0.74857 0.1661,0.13953 0.37207,0.31006 0.6024,0.31006 h 0.002 0.002 c 0.23033,0 0.43629,-0.17053 0.6024,-0.31006 0.30786,-0.2569 0.62676,-0.50495 0.94347,-0.74857 0.0554,-0.0443 0.10631,-0.093 0.15282,-0.14617 z m 0,-2.32765 c 0,0.18825 -0.18161,0.43408 -0.32557,0.54703 -0.29675,0.23254 -0.59354,0.4673 -0.88809,0.70206 -0.11738,0.0952 -0.32999,0.29899 -0.48502,0.29899 h -0.002 -0.002 c -0.15504,0 -0.36765,-0.20375 -0.48503,-0.29899 -0.29456,-0.23476 -0.59133,-0.46952 -0.8881,-0.70206 -0.19932,-0.15724 -0.32556,-0.3765 -0.32556,-0.62897 0,-0.0377 0.0332,-0.0709 0.0709,-0.0709 h 3.26004 c 0.0842,0 0.0709,0.0974 0.0709,0.15281 z m 0.28348,-0.0819 c 0,-0.1949 -0.15947,-0.35436 -0.35436,-0.35436 h -3.26004 c -0.19489,0 -0.35435,0.15946 -0.35435,0.35436 v 2.40959 c 0,0.19489 0.15946,0.35435 0.35435,0.35435 h 3.26004 c 0.19489,0 0.35436,-0.15946 0.35436,-0.35435 z"
       fill="#3e9cdc"
       id="path1"
       style="stroke-width:0.264583" />
  </g>
</svg>
